<?xml version="1.0" encoding="UTF-8" standalone="no"?>
<!DOCTYPE svg PUBLIC "-//W3C//DTD SVG 1.1//EN"
"http://www.w3.org/Graphics/SVG/1.1/DTD/svg11.dtd">
<svg viewBox="0 0 550 770" version="1.1" xmlns="http://www.w3.org/2000/svg" xmlns:xlink="http://www.w3.org/1999/xlink">
<defs>
<clipPath id="c0"><path d="M0 770V0H550V770Z"/></clipPath>
<clipPath id="c1"><path d="M175.4 666.2V641h18.3v25.2Z"/></clipPath>
<style type="text/css"><![CDATA[
.g0{
fill: #FFF;
}
.g1{
fill: none;
stroke: #000;
stroke-width: 1.145;
stroke-miterlimit: 10;
}
.g2{
fill: #000;
}
.g3{
fill: #231F20;
}
.g4{
fill: none;
stroke: #FFF;
stroke-width: 0.555;
stroke-miterlimit: 10;
}
]]></style>
</defs>
<g clip-path="url(#c0)">
<path d="M0 0H550V770H0V0Z" class="g0"/>
<path d="M0 0H550V770H0V0Z" class="g0"/>
<image preserveAspectRatio="none" x="-31" y="-13" width="613" height="797" xlink:href="img/1.png"/>
</g>
<path d="M142.7 227.1H407.3M142.7 452.2H407.3" class="g1"/>
<path clip-path="url(#c1)" d="M184.5 641c-5 0 -9.1 3.9 -9.1 8.8c0 6.6 9.1 16.4 9.1 16.4c0 0 9.2 -9.8 9.2 -16.4c0 -4.9 -4.1 -8.8 -9.2 -8.8Zm0 12c-1.8 0 -3.2 -1.5 -3.2 -3.2c0 -1.7 1.4 -3.1 3.2 -3.1c1.8 0 3.3 1.4 3.3 3.1c0 1.7 -1.5 3.2 -3.3 3.2Z" class="g2"/>
<path d="M198.4 561h-3v1.1c0 .2 -.1 .3 -.2 .3h-1c-.1 0 -.2 -.1 -.2 -.3V561h-3.5v1.1c0 .2 -.1 .3 -.2 .3h-1c-.1 0 -.2 -.1 -.2 -.3V561h-3.5v1.1c0 .2 -.1 .3 -.2 .3h-1c-.1 0 -.2 -.1 -.2 -.3V561h-3.5v1.1c0 .2 -.1 .3 -.2 .3h-1c-.1 0 -.2 -.1 -.2 -.3V561h-2.9c-1 0 -1.8 .8 -1.8 1.7V565h25.5v-2.3c0 -.9 -.8 -1.7 -1.7 -1.7Z" class="g3"/>
<path d="M198.4 561h-3v1.1c0 .2 -.1 .3 -.2 .3h-1c-.1 0 -.2 -.1 -.2 -.3V561h-3.5v1.1c0 .2 -.1 .3 -.2 .3h-1c-.1 0 -.2 -.1 -.2 -.3V561h-3.5v1.1c0 .2 -.1 .3 -.2 .3h-1c-.1 0 -.2 -.1 -.2 -.3V561h-3.5v1.1c0 .2 -.1 .3 -.2 .3h-1c-.1 0 -.2 -.1 -.2 -.3V561h-2.9c-1 0 -1.8 .8 -1.8 1.7V565h25.5v-2.3c0 -.9 -.8 -1.7 -1.7 -1.7Z" class="g4"/>
<path d="M174.6 569.2V579c0 1 .8 1.7 1.8 1.7h22c.9 0 1.7 -.7 1.7 -1.7V565H174.6v4.2Z" class="g3"/>
<path d="M174.6 569.2V579c0 1 .8 1.7 1.8 1.7h22c.9 0 1.7 -.7 1.7 -1.7V565H174.6v4.2Z" class="g4"/>
<path d="M179.4 569c0 .4 -.2 .6 -.6 .6h-1c-.3 0 -.5 -.2 -.5 -.6v-.9c0 -.4 .2 -.6 .5 -.6h1c.4 0 .6 .2 .6 .6v.9Z" class="g0"/>
<path d="M183.9 569c0 .4 -.2 .6 -.6 .6h-.9c-.4 0 -.6 -.2 -.6 -.6v-.9c0 -.4 .2 -.6 .6 -.6h.9c.4 0 .6 .2 .6 .6v.9Z" class="g0"/>
<path d="M188.5 569c0 .4 -.3 .6 -.6 .6h-1c-.4 0 -.6 -.2 -.6 -.6v-.9c0 -.4 .2 -.6 .6 -.6h1c.3 0 .6 .2 .6 .6v.9Z" class="g0"/>
<path d="M193 569c0 .4 -.3 .6 -.6 .6h-1c-.3 0 -.6 -.2 -.6 -.6v-.9c0 -.4 .3 -.6 .6 -.6h1c.3 0 .6 .2 .6 .6v.9Z" class="g0"/>
<path d="M197.5 569c0 .4 -.3 .6 -.6 .6h-1c-.3 0 -.6 -.2 -.6 -.6v-.9c0 -.4 .3 -.6 .6 -.6h1c.3 0 .6 .2 .6 .6v.9Z" class="g0"/>
<path d="M179.4 573.3c0 .3 -.2 .6 -.6 .6h-1c-.3 0 -.5 -.3 -.5 -.6v-.9c0 -.4 .2 -.6 .5 -.6h1c.4 0 .6 .2 .6 .6v.9Z" class="g0"/>
<path d="M183.9 573.3c0 .3 -.2 .6 -.6 .6h-.9c-.4 0 -.6 -.3 -.6 -.6v-.9c0 -.4 .2 -.6 .6 -.6h.9c.4 0 .6 .2 .6 .6v.9Z" class="g0"/>
<path d="M188.5 573.3c0 .3 -.3 .6 -.6 .6h-1c-.4 0 -.6 -.3 -.6 -.6v-.9c0 -.4 .2 -.6 .6 -.6h1c.3 0 .6 .2 .6 .6v.9Z" class="g0"/>
<path d="M193 573.3c0 .3 -.3 .6 -.6 .6h-1c-.3 0 -.6 -.3 -.6 -.6v-.9c0 -.4 .3 -.6 .6 -.6h1c.3 0 .6 .2 .6 .6v.9Z" class="g0"/>
<path d="M197.5 573.3c0 .3 -.3 .6 -.6 .6h-1c-.3 0 -.6 -.3 -.6 -.6v-.9c0 -.4 .3 -.6 .6 -.6h1c.3 0 .6 .2 .6 .6v.9Z" class="g0"/>
<path d="M179.4 577.6c0 .3 -.2 .6 -.6 .6h-1c-.3 0 -.5 -.3 -.5 -.6v-1c0 -.3 .2 -.5 .5 -.5h1c.4 0 .6 .2 .6 .5v1Z" class="g0"/>
<path d="M183.9 577.6c0 .3 -.2 .6 -.6 .6h-.9c-.4 0 -.6 -.3 -.6 -.6v-1c0 -.3 .2 -.5 .6 -.5h.9c.4 0 .6 .2 .6 .5v1Z" class="g0"/>
<path d="M188.5 577.6c0 .3 -.3 .6 -.6 .6h-1c-.4 0 -.6 -.3 -.6 -.6v-1c0 -.3 .2 -.5 .6 -.5h1c.3 0 .6 .2 .6 .5v1Z" class="g0"/>
<path d="M193 577.6c0 .3 -.3 .6 -.6 .6h-1c-.3 0 -.6 -.3 -.6 -.6v-1c0 -.3 .3 -.5 .6 -.5h1c.3 0 .6 .2 .6 .5v1Z" class="g0"/>
<path d="M197.5 577.6c0 .3 -.3 .6 -.6 .6h-1c-.3 0 -.6 -.3 -.6 -.6v-1c0 -.3 .3 -.5 .6 -.5h1c.3 0 .6 .2 .6 .5v1Z" class="g0"/>
<path d="M179.5 562.6c-.2 0 -.5 -.2 -.5 -.5v-2.4c0 -.3 .3 -.5 .5 -.5h1c.3 0 .5 .2 .5 .5v2.4c0 .3 -.2 .5 -.5 .5h-1Zm4.9 0c-.2 0 -.5 -.2 -.5 -.5v-2.4c0 -.3 .3 -.5 .5 -.5h1c.3 0 .5 .2 .5 .5v2.4c0 .3 -.2 .5 -.5 .5h-1Zm4.9 0c-.3 0 -.5 -.2 -.5 -.5v-2.4c0 -.3 .2 -.5 .5 -.5h1c.3 0 .5 .2 .5 .5v2.4c0 .3 -.2 .5 -.5 .5h-1Zm4.9 0c-.3 0 -.5 -.2 -.5 -.5v-2.4c0 -.3 .2 -.5 .5 -.5h1c.3 0 .5 .2 .5 .5v2.4c0 .3 -.2 .5 -.5 .5h-1Z" class="g3"/>
<path d="M180.5 558.9h-1c-.4 0 -.7 .3 -.7 .8v2.4c0 .5 .3 .8 .7 .8h1c.5 0 .8 -.3 .8 -.8v-2.4c0 -.5 -.3 -.8 -.8 -.8Zm4.9 0h-1c-.4 0 -.7 .3 -.7 .8v2.4c0 .5 .3 .8 .7 .8h1c.4 0 .8 -.3 .8 -.8v-2.4c0 -.5 -.4 -.8 -.8 -.8Zm4.9 0h-1c-.4 0 -.8 .3 -.8 .8v2.4c0 .5 .4 .8 .8 .8h1c.4 0 .8 -.3 .8 -.8v-2.4c0 -.5 -.4 -.8 -.8 -.8Zm4.9 0h-1c-.4 0 -.8 .3 -.8 .8v2.4c0 .5 .4 .8 .8 .8h1c.4 0 .8 -.3 .8 -.8v-2.4c0 -.5 -.4 -.8 -.8 -.8Zm-14.7 .5c.1 0 .2 .1 .2 .3v2.4c0 .2 -.1 .3 -.2 .3h-1c-.1 0 -.2 -.1 -.2 -.3v-2.4c0 -.2 .1 -.3 .2 -.3h1m4.9 0c.1 0 .2 .1 .2 .3v2.4c0 .2 -.1 .3 -.2 .3h-1c-.1 0 -.2 -.1 -.2 -.3v-2.4c0 -.2 .1 -.3 .2 -.3h1m4.9 0c.1 0 .2 .1 .2 .3v2.4c0 .2 -.1 .3 -.2 .3h-1c-.1 0 -.2 -.1 -.2 -.3v-2.4c0 -.2 .1 -.3 .2 -.3h1m4.9 0c.1 0 .2 .1 .2 .3v2.4c0 .2 -.1 .3 -.2 .3h-1c-.1 0 -.2 -.1 -.2 -.3v-2.4c0 -.2 .1 -.3 .2 -.3h1Z" class="g0"/>
<path d="M176 568.2c-4.1 0 -7.4 -3.2 -7.4 -7.2c0 -4 3.3 -7.2 7.4 -7.2c4.1 0 7.4 3.2 7.4 7.2c0 4 -3.3 7.2 -7.4 7.2Z" class="g3"/>
<path d="M176 553.5c-4.2 0 -7.6 3.4 -7.6 7.5c0 4.1 3.4 7.5 7.6 7.5c4.2 0 7.6 -3.4 7.6 -7.5c0 -4.1 -3.4 -7.5 -7.6 -7.5Zm0 .5c3.9 0 7.1 3.1 7.1 7c0 3.8 -3.2 6.9 -7.1 6.9c-3.9 0 -7.1 -3.1 -7.1 -6.9c0 -3.9 3.2 -7 7.1 -7Z" class="g0"/>
<path d="M182 561c0 -3.2 -2.7 -5.9 -6 -5.9c-3.3 0 -6 2.7 -6 5.9c0 3.2 2.7 5.8 6 5.8c3.3 0 6 -2.6 6 -5.8Z" class="g3"/>
<path d="M182 561c0 -3.2 -2.7 -5.9 -6 -5.9c-3.3 0 -6 2.7 -6 5.9c0 3.2 2.7 5.8 6 5.8c3.3 0 6 -2.6 6 -5.8Zm-6 -5.2v.9m0 8.5v.9M170.8 561h.9m8.6 0h.9" class="g4"/>
<path d="M175.6 560.6l-2.5 -2.4Z" class="g3"/>
<path d="M175.6 560.6l-2.5 -2.4m2.9 2.3v-1.9" class="g4"/>
<path d="M176.5 561c0 -.3 -.2 -.5 -.5 -.5c-.3 0 -.5 .2 -.5 .5c0 .3 .2 .5 .5 .5c.3 0 .5 -.2 .5 -.5Z" class="g0"/>
</svg>