<?xml version="1.0" encoding="UTF-8" standalone="no"?>
<!DOCTYPE svg PUBLIC "-//W3C//DTD SVG 1.1//EN"
"http://www.w3.org/Graphics/SVG/1.1/DTD/svg11.dtd">
<svg viewBox="0 0 550 770" version="1.1" xmlns="http://www.w3.org/2000/svg" xmlns:xlink="http://www.w3.org/1999/xlink">
<defs>
<clipPath id="c0"><path d="M0 770V0H550V770Z"/></clipPath>
<clipPath id="c1"><path d="M482.3 376.6L224.6 118.9L343.6 0H550V308.9l-67.7 67.7Z"/></clipPath>
<clipPath id="c2"><path d="M56.5 541.9V118H493V541.9Z"/></clipPath>
<clipPath id="c3"><path d="M0 770V321.5L39.2 282.3L275 518L23 770Z"/></clipPath>
<style type="text/css"><![CDATA[
.g0{
fill: #FFF;
}
.g1{
fill: #FFF2E8;
}
.g2{
fill: none;
stroke: #000;
stroke-width: 1.145;
stroke-miterlimit: 10;
}
]]></style>
</defs>
<g clip-path="url(#c0)">
<path d="M0 0H550V770H0V0Z" class="g0"/>
<path d="M0 0H550V770H0V0Z" class="g1"/>
</g>
<image clip-path="url(#c1)" preserveAspectRatio="none" x="225" y="-189" width="566" height="566" xlink:href="img/1.png"/>
<image clip-path="url(#c2)" preserveAspectRatio="none" x="56" y="118" width="437" height="424" xlink:href="img/2.png"/>
<image clip-path="url(#c3)" preserveAspectRatio="none" x="-243" y="283" width="518" height="518" xlink:href="img/3.png"/>
<path d="M344.5 608h57.7m-57.7 57.7h57.7M150.8 606.6h57.7m-57.7 57.7h57.7" class="g2"/>
</svg>