<?xml version="1.0" encoding="UTF-8" standalone="no"?>
<!DOCTYPE svg PUBLIC "-//W3C//DTD SVG 1.1//EN"
"http://www.w3.org/Graphics/SVG/1.1/DTD/svg11.dtd">
<svg viewBox="0 0 550 770" version="1.1" xmlns="http://www.w3.org/2000/svg" xmlns:xlink="http://www.w3.org/1999/xlink">
<defs>
<clipPath id="c0"><path d="M0 342.8V0H140.6V342.8Z"/></clipPath>
<clipPath id="c1"><path d="M414.2 770V433.7H550V770Z"/></clipPath>
<clipPath id="c2"><path d="M0 770V0H550V770Z"/></clipPath>
<clipPath id="c3"><path d="M72.7 715.4V259.8c1.1 -91.4 57 -165.9 135 -193.5c20.6 -7 44.3 -11.7 67.4 -11.7c23.1 0 45.4 4 65.9 11.1c.5 .2 .9 .2 1.3 .4c76.8 28.1 133.3 102 134.9 192.1V715.4Z"/></clipPath>
<clipPath id="c4"><path d="M0 770V506.4H140.7V770Z"/></clipPath>
<clipPath id="c5"><path d="M383.6 285.8V0H550V285.8Z"/></clipPath>
<clipPath id="c6"><path d="M0 344.3V0H141.9V344.3Z"/></clipPath>
<clipPath id="c7"><path d="M413.2 770V433H550V770Z"/></clipPath>
<clipPath id="c8"><path d="M242 195.6V105.1h66.5v90.5Z"/></clipPath>
<clipPath id="c9"><path d="M0 220.1V0H107.6V220.1Z"/></clipPath>
<clipPath id="ca"><path d="M434.1 770V581.3H550V770Z"/></clipPath>
<style type="text/css"><![CDATA[
.g0{
fill: #FFF;
}
.g1{
fill: none;
stroke: #E8AE4A;
stroke-width: 4.583;
stroke-miterlimit: 10;
}
.g2{
fill: none;
stroke: #DAA773;
stroke-width: 1.145;
stroke-miterlimit: 10;
}
.g3{
fill: #F4EADC;
}
.g4{
fill: #D59F35;
}
.g5{
fill: #DD855F;
}
.g6{
fill: #DAA773;
}
]]></style>
</defs>
<g clip-path="url(#c2)">
<path d="M0 0H550V770H0V0Z" class="g0"/>
<path d="M0 0H550V770H0V0Z" class="g0"/>
<g opacity="0.5">
<image preserveAspectRatio="none" x="-123" y="-13" width="797" height="797" xlink:href="img/1.jpg"/>
</g>
</g>
<path clip-path="url(#c3)" d="M207.7 66.3c20.6 -7 44.3 -11.7 67.4 -11.7c23.1 0 45.4 4 65.9 11.1c.5 .2 .9 .2 1.3 .4c77.1 28.2 133.9 102.7 134.9 193.4V715.4H72.7V259.8c1.1 -91.5 57 -165.9 135 -193.5Z" class="g1"/>
<path d="M312.6 528.5H422M312.6 565.4H422M121.8 528.5H231.1" class="g2"/>
<image clip-path="url(#c4)" preserveAspectRatio="none" x="-71" y="506" width="212" height="297" xlink:href="img/2.png"/>
<path d="M121.8 565.4H231.1" class="g2"/>
<image clip-path="url(#c5)" preserveAspectRatio="none" x="384" y="-31" width="228" height="317" xlink:href="img/3.png"/>
<g clip-path="url(#c6)" opacity="0.3">
<image clip-path="url(#c0)" preserveAspectRatio="none" x="-170" y="-66" width="311" height="409" xlink:href="img/4.png"/>
</g>
<g clip-path="url(#c7)" opacity="0.3">
<image clip-path="url(#c1)" preserveAspectRatio="none" x="415" y="434" width="311" height="410" xlink:href="img/5.png"/>
</g>
<g clip-path="url(#c8)">
<path d="M299.8 142.5l6.5 -3.9l.1 .1q.1 0 .1 0c.1 0 .1 -.1 .2 -.1c0 -.1 0 -.2 -.1 -.3h-.2l-1.9 -5.4v-.1c.1 0 .2 -.1 .1 -.2c-.1 -.1 -.2 -.1 -.3 -.1v.1l-4.3 -2v-.1c0 0 0 -.1 -.1 -.1q-.1 -.1 -.2 0h-.1l-4.2 -1.9v-.1c0 -.1 -.1 -.2 -.2 -.2c-.1 0 -.2 .1 -.2 .2v.1l-5.4 1.9h-.2c-.1 -.1 -.2 -.1 -.3 0c0 .1 0 .2 .1 .3h.1l1.3 7.5c-.6 1.2 -.7 2.6 -.2 3.8c-2.3 -.6 -4.5 -.8 -6.8 -.7c-2.7 -8.6 -10.7 -14.8 -20.3 -14.8c-11.7 0 -21.3 9.4 -21.3 21.1c0 11.6 9.6 21.1 21.3 21.1c.4 0 .8 0 1.1 -.1c1.7 5.5 5.7 10.2 11.3 12.8c10.6 5 23.3 .4 28.3 -10.1c4.5 -9.4 1.3 -20.5 -7.1 -26.3c1.2 -.4 2.3 -1.3 2.9 -2.5m-36.2 22.2c-.1 0 -.2 0 -.3 0C253.8 164.7 246 157 246 147.6c0 -9.5 7.8 -17.1 17.3 -17.1c7.5 0 13.9 4.7 16.3 11.4c-6 1.5 -11.3 5.5 -14.1 11.5c-1.8 3.7 -2.4 7.5 -1.9 11.3Zm5.5 -9.6c2.3 -4.8 6.6 -8.1 11.4 -9.3c.1 .6 .1 1.2 .1 1.8c0 8 -5.6 14.7 -13 16.6c-.4 -3 .1 -6.2 1.5 -9.1Zm31.3 14.5c-4.1 8.5 -14.4 12.2 -23 8.2c-4.3 -2 -7.5 -5.6 -8.9 -9.7c9.2 -2.3 16.1 -10.6 16.1 -20.5c0 -.8 0 -1.6 -.1 -2.4c2.5 0 5.1 .5 7.6 1.7c8.6 4 12.3 14.2 8.3 22.7ZM283.8 123.2l4.4 .8l-4.4 .8l-.9 4.4l-.8 -4.4l-4.4 -.8l4.4 -.8l.8 -4.4l.9 4.4Zm7 -8.6l-6.9 -1.3l6.9 -1.2l1.3 -6.9l1.3 6.9l6.9 1.2l-6.9 1.3l-1.3 6.8l-1.3 -6.8Zm-38.3 63.7l-4.4 .8l-.8 4.3l-.9 -4.3l-4.4 -.8l4.4 -.9l.9 -4.3l.8 4.3l4.4 .9Zm6.8 7.8l6.9 1.2l-6.9 1.3l-1.3 6.9l-1.3 -6.9l-6.9 -1.3l6.9 -1.2l1.3 -6.9l1.3 6.9Z" class="g3"/>
<path d="M296.9 145c1.2 -.4 2.3 -1.3 2.9 -2.5l-2.9 -1.4q-.1 .1 -.2 .1h-.1c-.1 -.1 -.1 -.2 0 -.2l-2.8 -1.3c-.1 0 -.1 .1 -.2 .1h-.1c-.1 -.1 -.1 -.2 -.1 -.3l-.7 -.3l-2.1 -1c-.6 1.2 -.7 2.6 -.2 3.8c-2.3 -.6 -4.5 -.8 -6.8 -.7c-2.7 -8.6 -10.7 -14.8 -20.3 -14.8c-11.7 0 -21.3 9.4 -21.3 21.1c0 11.6 9.6 21.1 21.3 21.1c.4 0 .8 0 1.1 -.1c1.7 5.5 5.7 10.2 11.3 12.8c10.6 5 23.3 .4 28.3 -10.1c4.5 -9.4 1.3 -20.5 -7.1 -26.3Zm-33.3 19.7c-.1 0 -.2 0 -.3 0C253.8 164.7 246 157 246 147.6c0 -9.5 7.8 -17.1 17.3 -17.1c7.5 0 13.9 4.7 16.3 11.4c-6 1.5 -11.3 5.5 -14.1 11.5c-1.8 3.7 -2.4 7.5 -1.9 11.3Zm5.5 -9.6c2.3 -4.8 6.6 -8.1 11.4 -9.3c.1 .6 .1 1.2 .1 1.8c0 8 -5.6 14.7 -13 16.6c-.4 -3 .1 -6.2 1.5 -9.1Zm31.3 14.5c-4.1 8.5 -14.4 12.2 -23 8.2c-4.3 -2 -7.5 -5.6 -8.9 -9.7c9.2 -2.3 16.1 -10.6 16.1 -20.5c0 -.8 0 -1.6 -.1 -2.4c2.5 0 5.1 .5 7.6 1.7c8.6 4 12.3 14.2 8.3 22.7Z" class="g4"/>
</g>
<path d="M306.6 138.3h-.2l-5.8 -2.7l3.9 -2.7v-.1c.1 0 .2 -.1 .1 -.2c-.1 -.1 -.2 -.1 -.3 -.1v.1l-3.9 2.7l-.4 -4.7v-.1c0 0 0 -.1 -.1 -.1q-.1 -.1 -.2 0h-.1l-3.8 2.7l-.4 -4.6v-.1c0 -.1 -.1 -.2 -.2 -.2c-.1 0 -.2 .1 -.2 .2v.1l.4 4.6l-5.8 -2.7h-.2c-.1 -.1 -.2 -.1 -.3 0c0 .1 0 .2 .1 .3h.1l6 2.8l-1.9 6c0 .1 0 .2 .1 .3q.1 0 .1 0c.1 0 .1 -.1 .2 -.1v-.1l1.9 -5.9l4.3 2l-3.4 5.2q0 .1 0 .1c-.1 0 -.1 .1 0 .2q.1 0 .1 0q.1 0 .2 -.1l3.4 -5.3l6 2.8l.1 .1q.1 0 .1 0c.1 0 .1 -.1 .2 -.1c0 -.1 0 -.2 -.1 -.3ZM296 133.4l3.7 -2.6l.3 4.5l-4 -1.9Z" class="g5"/>
<path clip-path="url(#c9)" d="M-1.7 176.3c1 -1.4 1.8 -2.8 2.5 -4.3c.9 -1.7 1.9 -3.3 2.9 -5c1.3 -2.1 2.4 -4.3 3.9 -6.2c2.2 -2.6 3.9 -5.5 5.8 -8.3c3.3 -4.8 6.2 -9.9 9.6 -14.6c.3 -.5 .5 -.9 .6 -1.5c.4 -3.1 .5 -6.2 .7 -9.3c.3 -5 .2 -10 .1 -15c0 -2.6 -.2 -5.1 -.3 -7.7c-.1 -1.7 0 -3.3 .1 -4.9c.1 -.9 -.1 -1.6 -.3 -2.4c-.8 -2.8 -1.7 -5.5 -2.7 -8.2c-.9 -2.7 -.8 -5.5 -.5 -8.3c.4 -2.7 .9 -5.4 1.4 -8.1c.2 -1.3 .7 -2.6 1.4 -3.7c.4 -.5 .8 -1 1.3 -1.4c1.4 -1 2.9 -.6 3.6 .9c.4 1 .7 2 .9 3c.4 2.7 .7 5.3 .9 8c.1 3.2 -.6 6.2 -1.7 9.1c-.5 1.2 -1.1 2.4 -1.6 3.7c-.4 .7 -.6 1.5 -.6 2.3c-.2 4.5 -.5 9 -.1 13.6c.1 1.1 0 2.2 .1 3.4c0 1.7 -.1 3.5 .1 5.3c.1 1 .1 2 0 3c-.1 .5 -.1 .9 -.1 1.4c.1 3.8 -.2 7.7 -.5 11.5c0 .3 -.1 .6 .1 .9c.3 0 .4 -.4 .6 -.6c3.5 -6.1 7.6 -11.8 11.8 -17.5c1.7 -2.3 3.5 -4.6 5.2 -7c1.7 -2.4 3.1 -4.9 4.2 -7.7c.5 -1.2 1.1 -2.3 1.8 -3.4C52.2 92.7 54.6 88 56.6 83.1c.8 -1.8 1.8 -3.5 2.8 -5.2c.6 -1.1 1.2 -2.1 1.8 -3.2c.6 -.8 .5 -1.7 .4 -2.7C60.7 67.5 59 63.3 57.4 59.1C57 58.1 56.6 57 56.2 56c0 -.2 0 -.3 -.1 -.5C54.8 53.8 54.1 51.7 53 50c-.3 -.4 -.6 -.7 -.9 -1.1c-.6 -.6 -1.2 -1.2 -1.6 -2c-1 -1.9 -2.4 -3.2 -4 -4.4C44.6 41.1 43.7 39.2 43.3 36.9c-.1 -.8 -.2 -1.7 -.2 -2.5c0 -.9 -.2 -1.8 -.5 -2.6c-.3 -.8 -.4 -1.7 -.2 -2.5c.9 -2.8 2 -5.6 4.1 -7.8c1.7 -1.6 3.2 -1.8 5.1 -.4c3.1 2.3 4.7 5.4 5.1 9.2c.2 2.3 -.1 4.6 -.6 6.8c-.5 2.2 -.5 4.3 -.1 6.5c.1 .4 .2 .8 .2 1.2c-.1 3.5 1.1 6.7 1.7 10c.2 .9 .5 1.8 .9 2.7C60.4 61.6 62 65.7 63 70c.3 -.1 .3 -.4 .4 -.6c2.7 -7.1 5.2 -14.2 6.9 -21.6c.5 -2 .8 -4.1 .9 -6.2c.2 -1.3 .3 -2.6 .6 -3.9c.5 -2.4 .3 -4.8 -.7 -7.1c-.2 -.5 -.3 -1 -.6 -1.5C69 26.3 68.9 23.2 69.3 20.1c.2 -1.8 .2 -3.5 -.3 -5.3c-.8 -2.7 -.7 -5.4 .1 -8.1c.4 -1.4 .7 -2.8 1.2 -4.3c.4 -1 .9 -2 1.7 -2.7c1.7 -1.7 3 -1.6 4.4 -.2c2 1.9 3.5 4.2 3.7 7.1c.1 .8 .4 1.7 .6 2.6c.4 1.7 .5 3.5 0 5.2c-.5 1.9 -.8 3.9 -1.1 5.8c-.8 4.4 -2.3 8.5 -4.2 12.5c-.2 .4 -.5 .8 -.7 1.2c-.3 .3 -.5 .6 -.5 1c-.5 2.5 -1.1 4.9 -1.2 7.4c0 2.3 -.6 4.5 -1 6.7c-1.3 6 -3.4 11.7 -5.5 17.5c-.5 1.1 -.9 2.2 -1.3 3.3C64 73 62.7 76.1 60.9 79c-1.4 2.1 -2.5 4.3 -3.4 6.6c-1 2.4 -2.1 4.8 -3.3 7c-.3 .4 -.5 .7 -.6 1.2c.2 .2 .4 .1 .5 0c3 -2.8 6.5 -5 9.7 -7.6c.4 -.4 .9 -.7 1.3 -1.2c2.6 -2.5 5.6 -4.5 8.5 -6.5c1.9 -1.3 3.5 -2.9 5.3 -4.3c1.6 -1.3 2.5 -2.9 2.8 -4.9c.7 -3.8 2.3 -7.1 4.9 -9.8c3.3 -3.4 6.9 -6.3 11.4 -8c1.7 -.7 3.5 -.9 5.4 -.8c1 0 1.8 .3 2.7 .7c1.3 .7 1.6 1.8 .9 3.2c-.3 .7 -.8 1.3 -1.5 1.8c-1 1 -2.2 1.9 -3.3 2.8c-1.3 1.1 -2.4 2.4 -3.4 3.7C95.9 66.8 92.1 69.8 88 72.3c-1.6 1.1 -3.4 1.6 -5.2 2.1C81 74.9 79.6 75.9 78.2 77c-1.3 1.2 -2.7 2.3 -4.2 3.3c-2.4 1.7 -4.9 3.5 -7.2 5.6c-2.8 2.6 -5.9 4.7 -8.9 7c-2.4 1.8 -4.6 3.8 -6.6 6c-1 1 -1.7 2.1 -2.3 3.4c-1.3 3.2 -3.2 6.1 -5.2 8.9c-3.8 5.4 -7.7 10.7 -11.4 16.2c-1.3 1.9 -2.5 3.9 -3.7 5.9c-1.1 1.9 -2.4 3.6 -3.7 5.4c-1.4 1.8 -2.8 3.7 -4 5.7c-.3 .4 -.5 .9 -.7 1.4c1 -.8 1.9 -1.7 2.9 -2.4c5.5 -4.1 11.1 -8.3 17 -11.7c1 -.6 1.6 -1.3 2 -2.4c.3 -1 .7 -2.1 1 -3.2c.6 -2.2 1.8 -3.9 3.6 -5.3c2.8 -2.1 5.4 -4.4 7.8 -6.9c1.5 -1.5 3.3 -2.4 5.4 -2.9c1.9 -.4 3.8 -.8 5.6 -1.3c2.2 -.6 4.2 0 6 1c1 .6 1.2 1.4 .7 2.6c-.9 2.3 -2.2 4.3 -4.1 6c-1.6 1.4 -3.3 2.7 -5.1 3.7c-1.5 .9 -2.9 2 -4.1 3.2c-1.6 1.6 -3.4 2.7 -5.4 3.5c-1.7 .7 -3.3 1.4 -4.9 2.3c-1.9 1.1 -4.2 1.2 -6.4 1.2c-.8 0 -1.4 .2 -2 .5c-3.9 2.3 -7.5 5.1 -11.3 7.7c-2.1 1.5 -4.1 3 -6.1 4.7c-2.9 2.4 -5.2 5.3 -7.7 8.2c-4.3 5 -7.9 10.6 -11 16.5c-.8 1.4 -1.4 3 -2 4.5c-1.3 3.1 -2.8 6 -5.1 8.5c-2.3 2.6 -4.1 5.4 -5.4 8.7c-.8 1.8 -1.8 3.6 -2.5 5.4c-.1 .4 -.3 .9 -.4 1.3c.4 .1 .5 -.2 .7 -.4c1.9 -2.2 4.2 -4 6.7 -5.6c1.6 -1 2.9 -2.4 4.3 -3.6c.3 -.2 .5 -.5 .8 -.7c2.5 -1.5 4.5 -3.6 6.8 -5.4c.3 -.2 .6 -.5 1 -.7c4.2 -2.5 8.5 -5 12.8 -7.5c2 -1.2 4.3 -1.9 6.7 -2.1c1.3 -.1 2.4 -.5 3.6 -1c2.7 -1.1 5.5 -1.8 8.3 -2.2c2.3 -.4 4.5 -.1 6.7 .7c.2 .1 .4 .2 .6 .3c.9 .6 1.1 1.5 .4 2.3c-.2 .2 -.4 .4 -.6 .6c-2.3 1.9 -4.8 3.4 -7.6 4.5c-4 1.6 -8 2.6 -12.2 3.1c-2 .2 -3.8 .8 -5.6 1.7c-1.6 .8 -3.3 1.5 -5 2.1c-2.2 .7 -4.5 1 -6.9 .5c-.7 -.2 -1.3 -.1 -1.9 .4c-.6 .5 -1.3 .9 -2 1.3c-2.5 1.5 -4.7 3.3 -6.7 5.4c-.8 .7 -1.8 1.3 -2.7 2c-2.7 1.7 -5 3.9 -7.2 6.2c-.2 .3 -.5 .7 -.8 .9c-1.5 1.2 -2.2 2.7 -2.7 4.6c-1.1 4 -2.3 8.1 -3.5 12.1c0 .3 -.2 .6 -.3 .8c-.2 .4 -.6 .7 -1.1 .6c-.5 -.1 -.7 -.5 -.8 -1c-.1 -.3 -.1 -.7 0 -1c.1 -1.3 .4 -2.6 .8 -3.8c2.5 -6.8 4.5 -13.8 7.2 -20.5c1 -2.6 2.3 -4.9 3.8 -7.2c1.1 -1.7 2 -3.4 2.8 -5.2c.7 -1.4 .9 -3 .9 -4.6c0 -4.1 0 -8.3 0 -12.4c0 -1.6 -.4 -3.2 -.6 -4.8c-.1 -1.4 -.2 -2.8 -.3 -4.2c0 -.5 -.1 -1 -.3 -1.4c-1.4 -2.3 -2.2 -4.8 -2.7 -7.5c-.4 -2.6 -1 -5.3 -1.2 -7.9c0 -.3 -.1 -.5 -.2 -.7c-1.2 -3.6 -1.2 -7.3 -1.7 -11c-.3 -2 -.4 -4 .2 -6.1c.5 -1.4 1.1 -2.8 1.9 -4.1c0 -.1 .1 -.2 .2 -.3c1 -1.4 1.9 -1.3 2.8 0c.8 1.3 1.6 2.6 2.2 4.1c.7 1.9 .9 3.9 .7 5.9c-.2 1.4 -.3 2.8 -.4 4.2c-.1 1.6 .2 3.2 .3 4.8c.2 1.3 .2 2.7 -.2 4c-.1 .4 -.2 .9 -.2 1.4c0 2.2 0 4.4 0 6.6c0 1.3 .2 2.6 .4 3.9c.1 1.2 .2 2.5 .1 3.8c0 2.4 .3 4.7 .6 7.1c.3 2.2 .4 4.3 .3 6.5c-.2 2.3 -.2 4.7 0 7.1c.1 .1 0 .3 .3 .5Z" class="g6"/>
<path clip-path="url(#ca)" d="M543.5 625.1c-1 1.4 -1.9 2.8 -2.7 4.3c-.9 1.7 -1.9 3.3 -2.9 5c-1.2 2.1 -2.3 4.3 -3.9 6.2c-2.2 2.6 -3.8 5.6 -5.8 8.3c-3.3 4.8 -6.1 9.9 -9.6 14.7c-.3 .4 -.4 .8 -.5 1.4c-.4 3.1 -.5 6.2 -.7 9.4c-.4 4.9 -.2 9.9 -.2 14.9c.1 2.6 .2 5.2 .4 7.7c.1 1.7 -.1 3.3 -.2 5c0 .8 .1 1.5 .4 2.3c.8 2.8 1.7 5.5 2.6 8.2c1 2.7 .8 5.5 .5 8.3c-.3 2.7 -.9 5.4 -1.3 8.1c-.2 1.3 -.7 2.6 -1.5 3.7c-.3 .5 -.7 1 -1.3 1.4c-1.3 1 -2.9 .6 -3.6 -.9c-.4 -1 -.7 -2 -.8 -3c-.4 -2.7 -.8 -5.3 -.9 -8c-.2 -3.2 .6 -6.2 1.7 -9.1c.5 -1.2 1 -2.4 1.6 -3.6c.3 -.8 .5 -1.6 .6 -2.4c.2 -4.5 .5 -9 .1 -13.6c-.1 -1.1 -.1 -2.2 -.1 -3.4c0 -1.7 0 -3.5 -.2 -5.3c-.1 -1 -.1 -2 .1 -3c.1 -.4 .1 -.9 .1 -1.4c-.1 -3.8 .2 -7.6 .4 -11.5c.1 -.3 .2 -.6 0 -.9c-.4 0 -.5 .4 -.6 .6c-3.5 6.2 -7.7 11.8 -11.9 17.5c-1.7 2.3 -3.4 4.6 -5.1 7c-1.8 2.4 -3.2 5 -4.3 7.7c-.5 1.2 -1 2.3 -1.7 3.4c-2.8 4.6 -5.2 9.3 -7.2 14.2c-.8 1.9 -1.8 3.5 -2.8 5.2c-.6 1.1 -1.1 2.1 -1.8 3.2c-.5 .9 -.5 1.7 -.3 2.7c.8 4.5 2.5 8.7 4.1 12.9c.4 1 .8 2.1 1.2 3.1c.1 .2 .1 .4 .2 .5c1.2 1.7 1.9 3.8 3.1 5.6c.2 .3 .5 .6 .8 1c.6 .6 1.3 1.3 1.7 2c.9 1.9 2.4 3.2 3.9 4.4c1.9 1.4 2.8 3.3 3.2 5.6c.1 .8 .2 1.7 .3 2.5c0 .9 .1 1.8 .4 2.6c.4 .8 .5 1.7 .2 2.5c-.8 2.9 -1.9 5.6 -4.1 7.8c-1.6 1.6 -3.1 1.8 -5 .4c-3.1 -2.2 -4.7 -5.4 -5.1 -9.2c-.2 -2.3 0 -4.6 .6 -6.8c.4 -2.2 .5 -4.3 0 -6.5c0 -.4 -.1 -.8 -.1 -1.2c.1 -3.4 -1.1 -6.7 -1.8 -10c-.1 -.9 -.5 -1.8 -.8 -2.7c-1.7 -4.1 -3.2 -8.2 -4.2 -12.5c-.3 .1 -.4 .4 -.4 .6c-2.7 7.1 -5.2 14.2 -6.9 21.6c-.5 2 -.8 4.1 -1 6.2c-.1 1.3 -.3 2.6 -.5 3.9c-.5 2.5 -.4 4.8 .6 7.1c.2 .5 .4 1 .6 1.5c1.5 2.8 1.7 5.9 1.3 9c-.2 1.8 -.3 3.5 .2 5.3c.8 2.7 .7 5.4 0 8.1c-.4 1.4 -.7 2.9 -1.2 4.3c-.4 1 -.9 2.1 -1.7 2.9c-1.7 1.7 -3.1 1.5 -4.5 .1c-2 -2 -3.4 -4.3 -3.7 -7.2c-.1 -.8 -.3 -1.7 -.6 -2.5c-.4 -1.8 -.4 -3.5 0 -5.3c.5 -1.9 .8 -3.8 1.2 -5.8c.8 -4.4 2.2 -8.5 4.2 -12.5c.2 -.4 .4 -.8 .7 -1.2c.3 -.3 .4 -.6 .5 -1c.5 -2.5 1 -4.9 1.1 -7.4c.1 -2.3 .6 -4.5 1.1 -6.7c1.3 -6 3.3 -11.7 5.5 -17.4c.4 -1.2 .9 -2.3 1.3 -3.4c1.1 -3.2 2.5 -6.3 4.3 -9.2c1.3 -2.1 2.4 -4.3 3.4 -6.6c1 -2.4 2 -4.7 3.3 -7c.2 -.4 .5 -.7 .5 -1.2c-.2 -.2 -.3 -.1 -.4 0c-3.1 2.8 -6.5 5 -9.7 7.6c-.5 .4 -1 .8 -1.4 1.2c-2.6 2.5 -5.5 4.5 -8.5 6.5c-1.8 1.3 -3.4 2.9 -5.2 4.3c-1.7 1.3 -2.5 2.9 -2.9 4.9c-.6 3.8 -2.3 7.1 -4.9 9.8c-3.2 3.5 -6.9 6.3 -11.3 8c-1.8 .7 -3.6 .9 -5.5 .9c-.9 -.1 -1.8 -.3 -2.6 -.8c-1.3 -.7 -1.7 -1.8 -1 -3.1c.4 -.8 .9 -1.4 1.5 -1.9c1.1 -1 2.2 -1.9 3.3 -2.8c1.3 -1.1 2.5 -2.4 3.5 -3.7c2.9 -3.9 6.6 -6.9 10.7 -9.4c1.6 -1.1 3.4 -1.6 5.3 -2.1c1.7 -.5 3.2 -1.5 4.5 -2.6c1.4 -1.1 2.8 -2.2 4.2 -3.3c2.5 -1.7 5 -3.5 7.2 -5.6c2.8 -2.6 6 -4.7 9 -7c2.3 -1.8 4.5 -3.8 6.6 -6c.9 -1 1.7 -2.1 2.2 -3.3c1.4 -3.3 3.2 -6.2 5.2 -9c3.9 -5.4 7.8 -10.7 11.5 -16.1c1.3 -2 2.5 -4 3.6 -6c1.1 -1.9 2.4 -3.6 3.8 -5.3c1.4 -1.9 2.7 -3.8 4 -5.8c.2 -.4 .5 -.8 .6 -1.4c-.9 .8 -1.9 1.7 -2.9 2.4c-5.5 4.2 -11 8.3 -17 11.7c-.9 .6 -1.6 1.4 -1.9 2.4c-.4 1 -.8 2.1 -1.1 3.2c-.5 2.2 -1.8 3.9 -3.5 5.3c-2.8 2.2 -5.4 4.5 -7.9 7c-1.5 1.5 -3.3 2.3 -5.4 2.8c-1.8 .4 -3.7 .8 -5.6 1.4c-2.1 .6 -4.1 -.1 -6 -1.1c-1 -.6 -1.1 -1.4 -.7 -2.6c.9 -2.3 2.3 -4.3 4.1 -6c1.6 -1.4 3.4 -2.6 5.2 -3.7c1.5 -.9 2.9 -1.9 4.1 -3.2c1.5 -1.6 3.3 -2.7 5.4 -3.5c1.6 -.7 3.3 -1.4 4.8 -2.3c2 -1.1 4.2 -1.2 6.4 -1.2c.8 0 1.4 -.2 2.1 -.5c3.9 -2.3 7.5 -5.1 11.2 -7.7c2.2 -1.5 4.2 -3 6.2 -4.7c2.9 -2.4 5.2 -5.3 7.6 -8.1c4.4 -5.1 7.9 -10.7 11.1 -16.6c.7 -1.4 1.3 -3 1.9 -4.5c1.3 -3.1 3 -6 5.2 -8.5c2.3 -2.6 4.1 -5.4 5.4 -8.6c.8 -1.9 1.8 -3.7 2.5 -5.5c.2 -.4 .3 -.9 .5 -1.3c-.4 -.1 -.6 .2 -.7 .4c-2 2.2 -4.3 4 -6.8 5.6c-1.6 1 -2.9 2.4 -4.4 3.6c-.2 .2 -.5 .5 -.8 .7c-2.5 1.5 -4.5 3.6 -6.7 5.4c-.3 .2 -.7 .5 -1 .7c-4.3 2.5 -8.6 5 -12.8 7.5c-2.1 1.2 -4.3 1.9 -6.7 2.1c-1.3 .1 -2.5 .5 -3.6 1c-2.7 1.1 -5.5 1.8 -8.4 2.2c-2.3 .4 -4.5 .1 -6.6 -.7c-.3 -.1 -.5 -.2 -.7 -.3c-.9 -.6 -1 -1.5 -.4 -2.3c.2 -.2 .4 -.4 .7 -.6c2.3 -1.9 4.8 -3.4 7.6 -4.5c3.9 -1.6 8 -2.6 12.1 -3.1c2 -.2 3.9 -.8 5.6 -1.7c1.7 -.8 3.3 -1.5 5 -2.1c2.3 -.7 4.6 -1 6.9 -.4c.8 .1 1.4 0 1.9 -.5c.7 -.5 1.3 -.9 2 -1.3c2.5 -1.5 4.8 -3.3 6.9 -5.3c.8 -.8 1.7 -1.4 2.7 -2.1c2.6 -1.7 5 -3.8 7.1 -6.2c.3 -.3 .5 -.6 .9 -.9c1.4 -1.2 2.2 -2.7 2.6 -4.6c1.1 -4 2.3 -8.1 3.5 -12.1c.1 -.3 .2 -.6 .4 -.8c.2 -.4 .5 -.7 1 -.6c.5 .1 .7 .5 .8 1c.1 .3 .1 .7 .1 1c-.2 1.3 -.4 2.6 -.9 3.8c-2.4 6.8 -4.4 13.8 -7.1 20.5c-1 2.6 -2.4 4.9 -3.9 7.2c-1 1.7 -1.9 3.5 -2.8 5.2c-.7 1.4 -.8 3 -.9 4.6c0 4.1 0 8.3 0 12.4c0 1.6 .4 3.2 .6 4.8c.2 1.4 .2 2.8 .4 4.2c0 .5 0 1 .3 1.4c1.4 2.3 2.1 4.8 2.6 7.5c.5 2.6 1 5.3 1.3 8c0 .2 0 .4 .1 .7c1.2 3.5 1.3 7.2 1.8 10.9c.2 2 .4 4.1 -.3 6.1c-.4 1.4 -1.1 2.8 -1.8 4.1c-.1 .2 -.2 .3 -.2 .3c-1 1.4 -2 1.4 -2.9 0c-.8 -1.3 -1.6 -2.6 -2.1 -4.1c-.7 -1.9 -1 -3.9 -.7 -5.9c.1 -1.4 .2 -2.8 .3 -4.2c.2 -1.6 -.1 -3.2 -.3 -4.8c-.1 -1.3 -.1 -2.6 .2 -3.9c.2 -.5 .2 -1 .2 -1.5c0 -2.2 0 -4.4 0 -6.6c0 -1.3 -.2 -2.6 -.3 -3.9c-.2 -1.2 -.2 -2.5 -.2 -3.8c.1 -2.4 -.3 -4.7 -.6 -7.1c-.2 -2.1 -.4 -4.3 -.2 -6.5c.2 -2.3 .2 -4.7 -.1 -7.1c0 -.1 0 -.3 -.2 -.5Z" class="g6"/>
</svg>